# xmcd CD database file
#
# Track frame offsets:
#	150
#	16197
#	29978
#	43371
#	58536
#	71877
#	84629
#	97656
#	115216
#	133265
#	146259
#	158263
#	176849
#	193651
#	209525
#	224139
#	237967
#	251406
#	266380
#
# Disc length: 3736 seconds
#
# Revision: 1
# Processed by: cddbd v1.4PL0 Copyright (c) Steve Scherf et al.
# Submitted via: CDex 1.50beta9
#
DISCID=1c0e9613
DTITLE=banda da loirinha - banda da loirinha
DYEAR=1900
DGENRE=forró
TTITLE0=Loirinha
TTITLE1=Carnaval
TTITLE2=Divino Amor
TTITLE3=Palavras De Amor
TTITLE4=Esfrega Na Loirinha
TTITLE5=Minha Ilha
TTITLE6=Zoião
TTITLE7=Sonho
TTITLE8=Pressentimento
TTITLE9=Pra Sempre Te Amar
TTITLE10=Cigana
TTITLE11=Loirinha Do Pará
TTITLE12=Cúmbia Do Laércio
TTITLE13=Dudu
TTITLE14=Meu Amor, Minha Vida
TTITLE15=Minha Deuza
TTITLE16=Sentimento
TTITLE17=Não Sei Não
TTITLE18=Crises De Ciúme
EXTD=
EXTT0=
EXTT1=
EXTT2=
EXTT3=
EXTT4=
EXTT5=
EXTT6=
EXTT7=
EXTT8=
EXTT9=
EXTT10=
EXTT11=
EXTT12=
EXTT13=
EXTT14=
EXTT15=
EXTT16=
EXTT17=
EXTT18=
PLAYORDER=
